<!DOCTYPE svg PUBLIC "-//W3C//DTD SVG 1.1//EN" "http://www.w3.org/Graphics/SVG/1.1/DTD/svg11.dtd">
<!-- Uploaded to: SVG Repo, www.svgrepo.com, Transformed by: SVG Repo Mixer Tools -->
<svg fill="#000000" width="800px" height="800px" viewBox="0 0 32 32" id="icon" xmlns="http://www.w3.org/2000/svg">
<g id="SVGRepo_bgCarrier" stroke-width="0"/>
<g id="SVGRepo_tracerCarrier" stroke-linecap="round" stroke-linejoin="round"/>
<g id="SVGRepo_iconCarrier"> <defs> <style> .cls-1 { fill: none; } </style> </defs> <rect x="19" y="10" width="7" height="2"/> <rect x="19" y="15" width="7" height="2"/> <rect x="19" y="20" width="7" height="2"/> <rect x="6" y="10" width="7" height="2"/> <rect x="6" y="15" width="7" height="2"/> <rect x="6" y="20" width="7" height="2"/> <path d="M28,5H4A2.002,2.002,0,0,0,2,7V25a2.002,2.002,0,0,0,2,2H28a2.002,2.002,0,0,0,2-2V7A2.002,2.002,0,0,0,28,5ZM4,7H15V25H4ZM17,25V7H28V25Z"/> <rect id="_Transparent_Rectangle_" data-name="&lt;Transparent Rectangle&gt;" class="cls-1" width="32" height="32"/> </g>
</svg>