<?xml version="1.0" encoding="iso-8859-1"?>
<!-- Uploaded to: SVG Repo, www.svgrepo.com, Generator: SVG Repo Mixer Tools -->
<svg fill="#000000" height="800px" width="800px" version="1.1" id="Layer_1" xmlns="http://www.w3.org/2000/svg" xmlns:xlink="http://www.w3.org/1999/xlink" 
	 viewBox="0 0 512 512" xml:space="preserve">
<g>
	<g>
		<path d="M492.413,47.596h-15.938h-10.439V17.067C466.036,7.641,458.395,0,448.969,0s-17.067,7.641-17.067,17.067v30.529h-10.439
			h-15.938c-9.425,0-17.067,7.641-17.067,17.067c0,9.044,7.041,16.426,15.938,17.01v75.097c0,9.425,7.641,17.067,17.067,17.067
			h10.439v263.588c0,22.3-18.143,40.443-40.443,40.443s-40.443-18.143-40.443-40.443V262.191c0-41.123-33.455-74.578-74.577-74.578
			c-41.123,0-74.577,33.455-74.577,74.578v175.233c0,22.3-18.143,40.443-40.443,40.443c-22.3,0-40.443-18.143-40.443-40.443V173.835
			h10.439c9.425,0,17.067-7.641,17.067-17.067v-22.886c10.788,3.056,21.256,7.223,31.18,12.469
			c8.331,4.401,18.658,1.22,23.064-7.113c4.406-8.333,1.221-18.658-7.112-23.064c-14.874-7.862-30.753-13.725-47.13-17.505V81.672
			c8.897-0.584,15.938-7.964,15.938-17.01c0-9.425-7.641-17.067-17.067-17.067c-9.846,0-16.593,0-26.377,0V34.133h5.837
			c9.425,0,17.067-7.641,17.067-17.067S136.239,0,126.813,0H81.004c-9.425,0-17.067,7.641-17.067,17.067s7.641,17.067,17.067,17.067
			h5.836v13.462c-9.785,0-16.53,0-26.377,0c-9.425,0-17.067,7.641-17.067,17.067c0,9.044,7.041,16.426,15.938,17.01v17.295
			c-16.698,3.961-32.845,10.08-47.89,18.252c-8.283,4.5-11.349,14.862-6.851,23.144s14.859,11.349,23.144,6.851
			c10.017-5.442,20.628-9.788,31.597-12.98v22.535c0,9.425,7.641,17.067,17.067,17.067H86.84v263.588
			c0,41.123,33.455,74.577,74.577,74.577c41.122,0,74.577-33.454,74.577-74.577V262.191c0-22.302,18.143-40.445,40.443-40.445
			s40.443,18.143,40.443,40.445v175.233c0,41.123,33.455,74.577,74.577,74.577c41.122,0,74.577-33.454,74.577-74.577V173.835h10.439
			c9.425,0,17.067-7.641,17.067-17.067V81.672c8.899-0.584,15.94-7.966,15.94-17.01C509.48,55.237,501.838,47.596,492.413,47.596z
			 M114.345,139.702H93.467v-11.536c7.426-0.513,14.042-0.497,20.878-0.084V139.702z M114.345,93.891
			c-7.796-0.391-14.157-0.291-20.878,0.093V81.729h20.878V93.891z M459.408,139.702H438.53V81.729h20.878V139.702z"/>
	</g>
</g>
</svg>