<!DOCTYPE svg PUBLIC "-//W3C//DTD SVG 1.1//EN" "http://www.w3.org/Graphics/SVG/1.1/DTD/svg11.dtd">
<!-- Uploaded to: SVG Repo, www.svgrepo.com, Transformed by: SVG Repo Mixer Tools -->
<svg fill="#000000" height="800px" width="800px" version="1.1" id="Layer_1" xmlns="http://www.w3.org/2000/svg" xmlns:xlink="http://www.w3.org/1999/xlink" viewBox="0 0 512 512" xml:space="preserve">
<g id="SVGRepo_bgCarrier" stroke-width="0"/>
<g id="SVGRepo_tracerCarrier" stroke-linecap="round" stroke-linejoin="round"/>
<g id="SVGRepo_iconCarrier"> <g> <g> <g> <path d="M53.658,184.077c4.466,0,8.084-3.62,8.084-8.084c0-4.465-3.618-8.084-8.084-8.084h-0.023 c-4.466,0-8.072,3.62-8.072,8.084C45.563,180.458,49.193,184.077,53.658,184.077z"/> <path d="M53.658,272.276c4.466,0,8.084-3.62,8.084-8.084s-3.618-8.084-8.084-8.084h-0.023c-4.466,0-8.072,3.62-8.072,8.084 S49.193,272.276,53.658,272.276z"/> <path d="M53.658,242.877c4.466,0,8.084-3.62,8.084-8.084s-3.618-8.084-8.084-8.084h-0.023c-4.466,0-8.072,3.62-8.072,8.084 S49.193,242.877,53.658,242.877z"/> <path d="M53.658,213.477c4.466,0,8.084-3.62,8.084-8.084c0-4.465-3.618-8.084-8.084-8.084h-0.023 c-4.466,0-8.072,3.62-8.072,8.084C45.563,209.857,49.193,213.477,53.658,213.477z"/> <path d="M53.658,329.669c4.466,0,8.084-3.62,8.084-8.084c0-4.465-3.618-8.084-8.084-8.084h-0.023 c-4.466,0-8.072,3.62-8.072,8.084C45.563,326.049,49.193,329.669,53.658,329.669z"/> <path d="M53.658,417.867c4.466,0,8.084-3.62,8.084-8.084c0-4.465-3.618-8.084-8.084-8.084h-0.023 c-4.466,0-8.072,3.62-8.072,8.084C45.563,414.248,49.193,417.867,53.658,417.867z"/> <path d="M53.658,388.469c4.466,0,8.084-3.62,8.084-8.084c0-4.465-3.618-8.084-8.084-8.084h-0.023 c-4.466,0-8.072,3.62-8.072,8.084C45.563,384.849,49.193,388.469,53.658,388.469z"/> <path d="M53.658,359.068c4.466,0,8.084-3.62,8.084-8.084c0-4.465-3.618-8.084-8.084-8.084h-0.023 c-4.466,0-8.072,3.62-8.072,8.084C45.563,355.449,49.193,359.068,53.658,359.068z"/> <path d="M82.761,241.017h-0.023c-4.466,0-8.072,3.62-8.072,8.084c0,4.465,3.63,8.084,8.096,8.084s8.084-3.62,8.084-8.084 C90.845,244.637,87.226,241.017,82.761,241.017z"/> <path d="M82.761,211.618h-0.023c-4.466,0-8.072,3.62-8.072,8.084s3.63,8.084,8.096,8.084s8.084-3.62,8.084-8.084 C90.845,215.237,87.226,211.618,82.761,211.618z"/> <path d="M82.761,182.218h-0.023c-4.466,0-8.072,3.62-8.072,8.084c0,4.465,3.63,8.084,8.096,8.084s8.084-3.62,8.084-8.084 C90.846,185.838,87.226,182.218,82.761,182.218z"/> <path d="M90.845,394.693c0-4.465-3.618-8.084-8.084-8.084h-0.023c-4.466,0-8.072,3.62-8.072,8.084 c0,4.465,3.63,8.084,8.096,8.084S90.845,399.158,90.845,394.693z"/> <path d="M82.761,357.21h-0.023c-4.466,0-8.072,3.62-8.072,8.084c0,4.465,3.63,8.084,8.096,8.084s8.084-3.62,8.084-8.084 C90.846,360.83,87.226,357.21,82.761,357.21z"/> <path d="M82.761,327.809h-0.023c-4.466,0-8.072,3.62-8.072,8.084s3.63,8.084,8.096,8.084s8.084-3.62,8.084-8.084 S87.226,327.809,82.761,327.809z"/> <path d="M105.411,454.633c-4.466,0-8.084,3.62-8.084,8.084v0.023c0,4.465,3.618,8.072,8.084,8.072 c4.466,0,8.084-3.631,8.084-8.096C113.495,458.252,109.876,454.633,105.411,454.633z"/> <path d="M193.609,470.814c4.466,0,8.084-3.631,8.084-8.096s-3.618-8.084-8.084-8.084c-4.466,0-8.084,3.62-8.084,8.084v0.023 C185.525,467.205,189.145,470.814,193.609,470.814z"/> <path d="M164.21,454.633c-4.466,0-8.084,3.62-8.084,8.084v0.023c0,4.465,3.619,8.072,8.084,8.072 c4.466,0,8.084-3.631,8.084-8.096C172.294,458.252,168.674,454.633,164.21,454.633z"/> <path d="M134.809,454.633c-4.466,0-8.084,3.62-8.084,8.084v0.023c0,4.465,3.619,8.072,8.084,8.072s8.084-3.631,8.084-8.096 C142.893,458.252,139.275,454.633,134.809,454.633z"/> <path d="M253.686,454.633c-4.466,0-8.084,3.62-8.084,8.084v0.023c0,4.465,3.618,8.072,8.084,8.072 c4.466,0,8.084-3.631,8.084-8.096C261.77,458.252,258.15,454.633,253.686,454.633z"/> <path d="M341.885,470.814c4.466,0,8.084-3.631,8.084-8.096s-3.618-8.084-8.084-8.084c-4.466,0-8.084,3.62-8.084,8.084v0.023 C333.8,467.205,337.419,470.814,341.885,470.814z"/> <path d="M312.484,470.814c4.466,0,8.084-3.631,8.084-8.096s-3.618-8.084-8.084-8.084c-4.466,0-8.084,3.62-8.084,8.084v0.023 C304.4,467.205,308.019,470.814,312.484,470.814z"/> <path d="M283.084,470.814c4.466,0,8.084-3.631,8.084-8.096s-3.619-8.084-8.084-8.084c-4.466,0-8.084,3.62-8.084,8.084v0.023 C275,467.205,278.619,470.814,283.084,470.814z"/> <path d="M178.519,441.711c4.466,0,8.084-3.631,8.084-8.096s-3.618-8.084-8.084-8.084c-4.466,0-8.084,3.62-8.084,8.084v0.023 C170.435,438.102,174.054,441.711,178.519,441.711z"/> <path d="M141.035,433.614v0.023c0,4.465,3.619,8.072,8.084,8.072s8.084-3.631,8.084-8.096c0-4.465-3.619-8.084-8.084-8.084 S141.035,429.15,141.035,433.614z"/> <path d="M127.803,433.614c0-4.465-3.618-8.084-8.084-8.084c-4.466,0-8.084,3.62-8.084,8.084v0.023 c0,4.465,3.618,8.072,8.084,8.072C124.184,441.709,127.803,438.079,127.803,433.614z"/> <path d="M326.794,441.711c4.466,0,8.084-3.631,8.084-8.096s-3.618-8.084-8.084-8.084c-4.466,0-8.084,3.62-8.084,8.084v0.023 C318.71,438.102,322.328,441.711,326.794,441.711z"/> <path d="M297.393,441.711c4.466,0,8.084-3.631,8.084-8.096s-3.618-8.084-8.084-8.084c-4.466,0-8.084,3.62-8.084,8.084v0.023 C289.309,438.102,292.929,441.711,297.393,441.711z"/> <path d="M267.994,441.711c4.466,0,8.084-3.631,8.084-8.096s-3.618-8.084-8.084-8.084c-4.466,0-8.084,3.62-8.084,8.084v0.023 C259.91,438.102,263.528,441.711,267.994,441.711z"/> <path d="M363.052,210.189c4.466,0,8.084-3.62,8.084-8.084V168.43c0-13.373-10.88-24.253-24.253-24.253H167.953 c-13.372,0-24.253,10.879-24.253,24.253v178.93c0,13.373,10.88,24.253,24.253,24.253h178.931 c13.372,0,24.253-10.879,24.253-24.253V227.563c0-4.465-3.618-8.084-8.084-8.084c-4.466,0-8.084,3.62-8.084,8.084V347.36 c0,4.458-3.626,8.084-8.084,8.084H167.953c-4.458,0-8.084-3.626-8.084-8.084V168.43c0-4.458,3.626-8.084,8.084-8.084h178.931 c4.458,0,8.084,3.626,8.084,8.084v33.676C354.968,206.57,358.588,210.189,363.052,210.189z"/> <path d="M184.122,176.514c-4.466,0-8.084,3.62-8.084,8.084v146.594c0,4.465,3.618,8.084,8.084,8.084h146.594 c4.466,0,8.084-3.62,8.084-8.084V184.598c0-4.465-3.619-8.084-8.084-8.084H184.122z M322.631,323.108H192.206V192.682h130.425 V323.108z"/> <path d="M257.419,302.169c25.459,0,46.171-20.712,46.171-46.17c0-25.459-20.712-46.169-46.171-46.169 S211.248,230.542,211.248,256C211.248,281.459,231.96,302.169,257.419,302.169z M257.419,225.999 c16.544,0,30.002,13.459,30.002,30.001c0,16.544-13.459,30.001-30.002,30.001S227.416,272.542,227.416,256 C227.416,239.456,240.876,225.999,257.419,225.999z"/> <path d="M503.916,0h-57.837c-4.466,0-8.084,3.62-8.084,8.084v17.123c0,12.674-10.311,22.985-22.985,22.985 s-22.985-10.311-22.985-22.985V8.084c0-4.465-3.618-8.084-8.084-8.084H137.443c-2.144,0-4.199,0.852-5.717,2.368L2.367,131.726 C0.852,133.242,0,135.298,0,137.442v366.473C0,508.38,3.619,512,8.084,512h95.242c4.466,0,8.084-3.62,8.084-8.084 c0-4.465-3.619-8.084-8.084-8.084H16.168v-355.04L140.791,16.168h235.064v9.039c0,21.589,17.564,39.153,39.153,39.153 c21.589,0,39.154-17.564,39.154-39.153v-9.039h41.669v84.818h-28.993c-4.466,0-8.084,3.62-8.084,8.084V402.93 c0,4.465,3.618,8.084,8.084,8.084h28.993v84.817h-41.668v-9.039c0-21.589-17.564-39.153-39.153-39.153 c-21.589,0-39.153,17.564-39.153,39.153v9.039H130.811c-4.466,0-8.084,3.62-8.084,8.084c0,4.465,3.619,8.084,8.084,8.084H383.94 c4.466,0,8.084-3.62,8.084-8.084v-17.123c0-12.674,10.311-22.985,22.985-22.985c12.674,0,22.985,10.311,22.985,22.985v17.123 c0,4.465,3.619,8.084,8.084,8.084h57.838c4.466,0,8.084-3.62,8.084-8.084V8.084C512,3.62,508.382,0,503.916,0z M495.832,394.846 h-20.909v-277.69h20.909V394.846z"/> <path d="M32.151,457.519c0,13.175,10.719,23.894,23.894,23.894s23.893-10.719,23.893-23.894s-10.717-23.894-23.893-23.894 S32.151,444.344,32.151,457.519z M56.045,449.795c4.259,0,7.724,3.465,7.724,7.725s-3.465,7.725-7.724,7.725 c-4.26,0-7.725-3.465-7.725-7.725C48.32,453.259,51.785,449.795,56.045,449.795z"/> </g> </g> </g> </g>
</svg>