<?xml version="1.0" encoding="utf-8"?>
<!-- Uploaded to: SVG Repo, www.svgrepo.com, Generator: SVG Repo Mixer Tools -->
<svg width="800px" height="800px" viewBox="0 0 32 32" xmlns="http://www.w3.org/2000/svg">
<g fill="none" fill-rule="evenodd">
<path d="m0 0h32v32h-32z"/>
<path d="m16 0c8.836556 0 16 7.163444 16 16s-7.163444 16-16 16-16-7.163444-16-16 7.163444-16 16-16zm0 2c-7.7319865 0-14 6.2680135-14 14s6.2680135 14 14 14 14-6.2680135 14-14-6.2680135-14-14-14zm5.6710678 11 1.4142136 1.4142136-7.0710678 7.0710678-.0222136-.021-.0209322.021-7.0710678-7.0710678 1.4142136-1.4142136 5.6777864 5.6782814z" fill="#000000" fill-rule="nonzero"/>
</g>
</svg>