<?xml version="1.0" encoding="utf-8"?><!-- Uploaded to: SVG Repo, www.svgrepo.com, Generator: SVG Repo Mixer Tools -->
<svg version="1.1" id="Uploaded to svgrepo.com" xmlns="http://www.w3.org/2000/svg" xmlns:xlink="http://www.w3.org/1999/xlink" 
	 width="800px" height="800px" viewBox="0 0 32 32" xml:space="preserve">
<style type="text/css">
	.linesandangles_een{fill:#111918;}
</style>
<path class="linesandangles_een" d="M27.172,7.172l-2.343-2.343C24.047,4.047,23.024,3.657,22,3.657s-2.047,0.391-2.828,1.172L4,20
	v6.586l-0.707,0.707l1.414,1.414L5.414,28H12l15.172-15.172C28.734,11.266,28.734,8.734,27.172,7.172z M6,21.414L10.586,26H6V21.414
	z M12.293,24.879l-5.172-5.172l8.293-8.293L18,14l-4,4l2.586,2.586L12.293,24.879z M25.757,11.414L18,19.172L16.828,18l4-4l-4-4
	l3.757-3.757c0.378-0.378,0.88-0.586,1.414-0.586s1.036,0.208,1.414,0.586l2.343,2.343C26.537,9.366,26.537,10.634,25.757,11.414z"
	/>
</svg>