<!DOCTYPE svg PUBLIC "-//W3C//DTD SVG 1.1//EN" "http://www.w3.org/Graphics/SVG/1.1/DTD/svg11.dtd">
<!-- Uploaded to: SVG Repo, www.svgrepo.com, Transformed by: SVG Repo Mixer Tools -->
<svg fill="#000000" height="800px" width="800px" version="1.1" id="Capa_1" xmlns="http://www.w3.org/2000/svg" xmlns:xlink="http://www.w3.org/1999/xlink" viewBox="0 0 290.14 290.14" xml:space="preserve" stroke="#000000" stroke-width="2.9014200000000003">
<g id="SVGRepo_bgCarrier" stroke-width="0"/>
<g id="SVGRepo_tracerCarrier" stroke-linecap="round" stroke-linejoin="round" stroke="#CCCCCC" stroke-width="0.580284"/>
<g id="SVGRepo_iconCarrier"> <g> <path id="path12420" d="M67.938,0.07c-9.805,0-17.855,8.05-17.855,17.855v154.289c0,9.806,8.05,17.855,17.855,17.855h72.133 c0,0.001,0,0.001,0,0.002v50c-0.003,0.168,0.003,0.335,0.018,0.502c-9.774,1.998-17.52,9.747-19.516,19.521 c-0.167-0.016-0.334-0.024-0.502-0.023h-115c-2.761-0.039-5.032,2.168-5.071,4.929c-0.039,2.761,2.168,5.032,4.929,5.071 c0.047,0.001,0.094,0.001,0.141,0h115c0.168,0.003,0.335-0.003,0.502-0.018c2.327,11.383,12.455,20.018,24.498,20.018 c12.045,0,22.174-8.638,24.498-20.023c0.167,0.016,0.334,0.024,0.502,0.023h115c2.761,0.039,5.032-2.168,5.071-4.929 c0.039-2.761-2.168-5.032-4.929-5.071c-0.047-0.001-0.094-0.001-0.141,0h-115c-0.168-0.003-0.335,0.003-0.502,0.018 c-1.998-9.774-9.747-17.52-19.521-19.516c0.016-0.167,0.024-0.334,0.023-0.502v-50c0-0.001,0-0.001,0-0.002h72.133 c9.806,0,17.855-8.05,17.855-17.855V17.926c0-9.805-8.05-17.855-17.855-17.855H67.938z M67.938,10.07h154.266 c4.439,0,7.855,3.417,7.855,7.855v154.289c0,4.439-3.417,7.855-7.855,7.855H67.938c-4.438,0-7.855-3.417-7.855-7.855V17.926 C60.083,13.487,63.5,10.07,67.938,10.07z M67.938,15.426c-1.381,0-2.5,1.119-2.5,2.5v32.139c-0.02,1.381,1.084,2.516,2.465,2.535 c1.381,0.02,2.516-1.084,2.535-2.465c0-0.024,0-0.047,0-0.071V20.426h29.639c1.381,0.02,2.516-1.084,2.535-2.465 c0.02-1.381-1.084-2.516-2.465-2.535c-0.024,0-0.047,0-0.071,0H67.938z M132.675,41.496c-8.407,0-15.33,6.924-15.33,15.33v3.264 H97.552c-8.406,0-15.33,6.924-15.33,15.33v57.85c0,8.406,6.924,15.33,15.33,15.33h15.381c0.537,0.088,1.084,0.088,1.621,0h29.699 c0.537,0.088,1.084,0.088,1.621,0h29.701c0.537,0.088,1.084,0.088,1.621,0h15.395c8.406,0,15.33-6.924,15.33-15.33V75.42 c0-8.407-6.924-15.33-15.33-15.33h-19.793v-3.264c0-8.406-6.923-15.33-15.33-15.33H132.675z M132.675,51.496h24.793 c3.039,0,5.33,2.291,5.33,5.33v8.264c0,2.761,2.239,5,5,5h24.793c3.04,0,5.33,2.291,5.33,5.33v57.85c0,3.04-2.29,5.33-5.33,5.33 h-11.197v-15.66c0.039-2.761-2.168-5.032-4.93-5.07c-0.049-0.001-0.098-0.001-0.147,0c-2.759,0.042-4.963,2.311-4.924,5.07v15.66 h-21.322v-15.66c0.039-2.761-2.168-5.032-4.93-5.07c-0.049-0.001-0.098-0.001-0.147,0c-2.759,0.042-4.963,2.311-4.924,5.07v15.66 h-21.32v-15.66c0.039-2.761-2.168-5.032-4.93-5.07c-0.049-0.001-0.098-0.001-0.147,0c-2.759,0.042-4.963,2.311-4.924,5.07v15.66 H97.552c-3.04,0-5.33-2.291-5.33-5.33V75.42c0-3.039,2.29-5.33,5.33-5.33h24.793c2.761,0,5-2.239,5-5v-8.264 C127.345,53.787,129.636,51.496,132.675,51.496z M145.071,250.072c8.343,0,15,6.657,15,15s-6.657,15-15,15s-15-6.657-15-15 S136.728,250.072,145.071,250.072z M145.071,252.572c-6.874,0-12.5,5.626-12.5,12.5c-0.02,1.381,1.084,2.516,2.465,2.535 c1.381,0.02,2.516-1.084,2.535-2.465c0-0.024,0-0.047,0-0.071c0-4.172,3.328-7.5,7.5-7.5c1.381,0.02,2.516-1.084,2.535-2.465 c0.02-1.381-1.084-2.516-2.465-2.535C145.118,252.572,145.095,252.572,145.071,252.572z"/> </g> </g>
</svg>