<?xml version="1.0" ?>
<!-- Uploaded to: SVG Repo, www.svgrepo.com, Generator: SVG Repo Mixer Tools -->
<svg width="800px" height="800px" viewBox="0 0 512 512" id="svg2793" style="fill-rule:evenodd;clip-rule:evenodd;stroke-linejoin:round;stroke-miterlimit:2;" version="1.1" xml:space="preserve" xmlns="http://www.w3.org/2000/svg" xmlns:cc="http://creativecommons.org/ns#" xmlns:dc="http://purl.org/dc/elements/1.1/" xmlns:rdf="http://www.w3.org/1999/02/22-rdf-syntax-ns#" xmlns:serif="http://www.serif.com/" xmlns:svg="http://www.w3.org/2000/svg">
<defs id="defs2797"/>
<g id="_23-Matric" style="display:inline" transform="translate(-2048,-4096)">
<g id="g2220" transform="translate(2120.31,4157.9)">
<path d="m 0,35.68 c 0,11.662 -9.488,21.15 -21.15,21.15 -11.668,0 -21.16,-9.488 -21.16,-21.15 V 0.01 c 0,-11.668 9.492,-21.16 21.16,-21.16 11.662,0 21.15,9.492 21.15,21.16 z m -21.15,-86.83 c -28.21,0 -51.16,22.95 -51.16,51.16 v 35.67 c 0,28.204 22.95,51.15 51.16,51.15 C 7.054,86.83 30,63.884 30,35.68 V 0.01 C 30,-28.2 7.054,-51.15 -21.15,-51.15" id="path2218" style="fill-rule:nonzero"/>
</g>
<g id="g2224" transform="translate(2325.16,4157.9)">
<path d="m 0,35.68 c 0,11.662 -9.492,21.15 -21.16,21.15 -11.662,0 -21.15,-9.488 -21.15,-21.15 V 0.01 c 0,-11.668 9.488,-21.16 21.15,-21.16 11.668,0 21.16,9.492 21.16,21.16 z m -21.16,-86.83 c -28.204,0 -51.15,22.95 -51.15,51.16 v 35.67 c 0,28.204 22.946,51.15 51.15,51.15 C 7.05,86.83 30,63.884 30,35.68 V 0.01 C 30,-28.2 7.05,-51.15 -21.16,-51.15" id="path2222" style="fill-rule:nonzero"/>
</g>
<g id="g2228" transform="translate(2530,4157.9)">
<path d="m 0,35.68 c 0,11.662 -9.488,21.15 -21.15,21.15 -11.668,0 -21.161,-9.488 -21.161,-21.15 V 0.01 c 0,-11.668 9.493,-21.16 21.161,-21.16 11.662,0 21.15,9.492 21.15,21.16 z m -21.15,-86.83 c -28.21,0 -51.161,22.95 -51.161,51.16 v 35.67 c 0,28.204 22.951,51.15 51.161,51.15 C 7.054,86.83 30,63.884 30,35.68 V 0.01 C 30,-28.2 7.054,-51.15 -21.15,-51.15" id="path2226" style="fill-rule:nonzero"/>
</g>
<g id="g2232" transform="translate(2201.58,4106.75)">
<path d="m 0,128.3 c 8.284,0 15,-6.716 15,-15 V 15 C 15,6.716 8.284,0 0,0 -8.284,0 -15,6.716 -15,15 v 98.3 c 0,8.284 6.716,15 15,15" id="path2230" style="fill-rule:nonzero"/>
</g>
<g id="g2236" transform="translate(2406.42,4106.75)">
<path d="m 0,128.3 c 8.284,0 15,-6.716 15,-15 V 15 C 15,6.716 8.284,0 0,0 -8.284,0 -15,6.716 -15,15 v 98.3 c 0,8.284 6.716,15 15,15" id="path2234" style="fill-rule:nonzero"/>
</g>
<g id="g2240" transform="translate(2120.31,4510.43)">
<path d="m 0,35.68 c 0,11.662 -9.488,21.15 -21.15,21.15 -11.668,0 -21.16,-9.488 -21.16,-21.15 V 0 c 0,-11.662 9.492,-21.15 21.16,-21.15 C -9.488,-21.15 0,-11.662 0,0 Z m -21.15,-86.83 c -28.21,0 -51.16,22.946 -51.16,51.15 v 35.68 c 0,28.204 22.95,51.15 51.16,51.15 C 7.054,86.83 30,63.884 30,35.68 V 0 C 30,-28.204 7.054,-51.15 -21.15,-51.15" id="path2238" style="fill-rule:nonzero"/>
</g>
<g id="g2244" transform="translate(2325.16,4510.43)">
<path d="m 0,35.68 c 0,11.662 -9.492,21.15 -21.16,21.15 -11.662,0 -21.15,-9.488 -21.15,-21.15 V 0 c 0,-11.662 9.488,-21.15 21.15,-21.15 C -9.492,-21.15 0,-11.662 0,0 Z m -21.16,-86.83 c -28.204,0 -51.15,22.946 -51.15,51.15 v 35.68 c 0,28.204 22.946,51.15 51.15,51.15 C 7.05,86.83 30,63.884 30,35.68 V 0 C 30,-28.204 7.05,-51.15 -21.16,-51.15" id="path2242" style="fill-rule:nonzero"/>
</g>
<g id="g2248" transform="translate(2530,4510.43)">
<path d="m 0,35.68 c 0,11.662 -9.488,21.15 -21.15,21.15 -11.668,0 -21.161,-9.488 -21.161,-21.15 V 0 c 0,-11.662 9.493,-21.15 21.161,-21.15 C -9.488,-21.15 0,-11.662 0,0 Z m -21.15,-86.83 c -28.21,0 -51.161,22.946 -51.161,51.15 v 35.68 c 0,28.204 22.951,51.15 51.161,51.15 C 7.054,86.83 30,63.884 30,35.68 V 0 C 30,-28.204 7.054,-51.15 -21.15,-51.15" id="path2246" style="fill-rule:nonzero"/>
</g>
<g id="g2252" transform="translate(2201.58,4587.58)">
<path d="m 0,-128.3 c -8.284,0 -15,6.716 -15,15 V -15 c 0,8.284 6.716,15 15,15 8.284,0 15,-6.716 15,-15 v -98.3 c 0,-8.284 -6.716,-15 -15,-15" id="path2250" style="fill-rule:nonzero"/>
</g>
<g id="g2256" transform="translate(2406.42,4587.58)">
<path d="m 0,-128.3 c -8.284,0 -15,6.716 -15,15 V -15 c 0,8.284 6.716,15 15,15 8.284,0 15,-6.716 15,-15 v -98.3 c 0,-8.284 -6.716,-15 -15,-15" id="path2254" style="fill-rule:nonzero"/>
</g>
<g id="g2260" transform="translate(2222.73,4334.18)">
<path d="m 0,35.66 c 0,11.668 -9.488,21.16 -21.15,21.16 -11.668,0 -21.16,-9.492 -21.16,-21.16 V -0.01 c 0,-11.662 9.492,-21.15 21.16,-21.15 11.662,0 21.15,9.488 21.15,21.15 z m -21.15,-86.82 c -28.21,0 -51.16,22.946 -51.16,51.15 v 35.67 c 0,28.21 22.95,51.16 51.16,51.16 C 7.054,86.82 30,63.87 30,35.66 V -0.01 C 30,-28.214 7.054,-51.16 -21.15,-51.16" id="path2258" style="fill-rule:nonzero"/>
</g>
<g id="g2264" transform="translate(2427.58,4334.18)">
<path d="m 0,35.66 c 0,11.668 -9.492,21.16 -21.16,21.16 -11.662,0 -21.151,-9.492 -21.151,-21.16 V -0.01 c 0,-11.662 9.489,-21.15 21.151,-21.15 11.668,0 21.16,9.488 21.16,21.15 z m -21.16,-86.82 c -28.204,0 -51.151,22.946 -51.151,51.15 v 35.67 c 0,28.21 22.947,51.16 51.151,51.16 C 7.05,86.82 30,63.87 30,35.66 V -0.01 C 30,-28.214 7.05,-51.16 -21.16,-51.16" id="path2262" style="fill-rule:nonzero"/>
</g>
<g id="g2268" transform="translate(2114.16,4298.02)">
<path d="M 0,98.3 V 0 c 0,-8.284 -6.716,-15 -15,-15 -8.284,0 -15,6.716 -15,15 v 98.3 c 0,8.284 6.716,15 15,15 8.284,0 15,-6.716 15,-15" id="path2266" style="fill-rule:nonzero"/>
</g>
<g id="g2272" transform="translate(2522.57,4298.02)">
<path d="M 0,98.3 V 0 c 0,-8.284 -6.716,-15 -15,-15 -8.284,0 -15,6.716 -15,15 v 98.3 c 0,8.284 6.716,15 15,15 8.284,0 15,-6.716 15,-15" id="path2270" style="fill-rule:nonzero"/>
</g>
<g id="g2276" transform="translate(2319,4298.02)">
<path d="M 0,98.3 V 0 c 0,-8.284 -6.716,-15 -15,-15 -8.284,0 -15,6.716 -15,15 v 98.3 c 0,8.284 6.716,15 15,15 8.284,0 15,-6.716 15,-15" id="path2274" style="fill-rule:nonzero"/>
</g>
</g>
</svg>