<!DOCTYPE svg PUBLIC "-//W3C//DTD SVG 1.1//EN" "http://www.w3.org/Graphics/SVG/1.1/DTD/svg11.dtd">
<!-- Uploaded to: SVG Repo, www.svgrepo.com, Transformed by: SVG Repo Mixer Tools -->
<svg height="800px" width="800px" version="1.1" id="_x32_" xmlns="http://www.w3.org/2000/svg" xmlns:xlink="http://www.w3.org/1999/xlink" viewBox="0 0 512 512" xml:space="preserve" fill="#000000">
<g id="SVGRepo_bgCarrier" stroke-width="0"/>
<g id="SVGRepo_tracerCarrier" stroke-linecap="round" stroke-linejoin="round"/>
<g id="SVGRepo_iconCarrier"> <style type="text/css"> .st0{fill:#000000;} </style> <g> <path class="st0" d="M259.327,85.452c17.858-23.287,13.449-56.63-9.838-74.471c-23.271-17.866-56.63-13.466-74.479,9.814 c-17.866,23.295-13.458,56.613,9.829,74.471C208.119,113.132,241.461,108.732,259.327,85.452z"/> <path class="st0" d="M394.401,226.052L325.159,118.28c-11.744-18.116-35.932-23.296-54.064-11.544 c-18.115,11.728-23.295,35.924-11.543,54.056l-0.016-0.016l61.6,96.078l-62.662,65.091c-25.484,21.551-15.171,49.552-11.462,66.476 l33.326,88.033c3.049,13.94,16.836,22.756,30.793,19.707c13.932-3.064,22.756-16.852,19.7-30.784l-17.713-101.201l65.574-51.112 C413.28,291.378,416.112,260.65,394.401,226.052z"/> <path class="st0" d="M161.207,172.906c-31.734,0.016-57.426,25.732-57.442,57.45v266.408c0,8.414,6.822,15.235,15.236,15.235 c8.413,0,15.242-6.821,15.242-15.235V230.356c0.008-7.489,2.984-14.142,7.899-19.072c4.932-4.899,11.576-7.891,19.065-7.9 c7.481,0.008,14.133,3.001,19.064,7.9c4.906,4.93,7.899,11.583,7.908,19.072c-0.008,8.012-3.443,15.083-8.953,20.062 c-6.267,5.622-6.789,15.251-1.158,21.509c5.622,6.266,15.259,6.789,21.518,1.166c11.672-10.457,19.072-25.798,19.064-42.738 C218.633,198.63,192.94,172.923,161.207,172.906z"/> </g> </g>
</svg>