<!DOCTYPE svg PUBLIC "-//W3C//DTD SVG 1.1//EN" "http://www.w3.org/Graphics/SVG/1.1/DTD/svg11.dtd">

<!-- Uploaded to: SVG Repo, www.svgrepo.com, Transformed by: SVG Repo Mixer Tools -->
<svg version="1.1" id="_x32_" xmlns="http://www.w3.org/2000/svg" xmlns:xlink="http://www.w3.org/1999/xlink" width="800px" height="800px" viewBox="0 0 512 512" xml:space="preserve" fill="#000000">

<g id="SVGRepo_bgCarrier" stroke-width="0"/>

<g id="SVGRepo_tracerCarrier" stroke-linecap="round" stroke-linejoin="round"/>

<g id="SVGRepo_iconCarrier"> <style type="text/css">  .st0{fill:#000000;}  </style> <g> <path class="st0" d="M336.406,166.563c-10.891,1.75-72.609,12.094-76.5,12.094c-3.906,0-3.906,0-3.906,0s0,0-3.906,0 s-65.609-10.344-76.5-12.094c-18.719-3.031-34.344,2.266-39.813,4.531c-22.969,9.531-15.25,31.813-10.156,40.063 c7.047,11.344,33.781,41.125,60.125,44.609c34.344,4.516,64-21.172,70.25-21.172c6.234,0,35.906,25.688,70.25,21.172 c26.344-3.484,53.094-33.266,60.125-44.609c5.094-8.25,12.813-30.531-10.156-40.063 C370.734,168.828,355.125,163.531,336.406,166.563z M184.656,220.984c-11.094-10.734-9.25-21.516,3.688-22.391 c12.969-0.906,34.813,4.5,35.172,11.656C224.438,228.156,195.75,231.75,184.656,220.984z M327.344,220.984 c-11.109,10.766-39.797,7.172-38.859-10.734c0.359-7.156,22.203-12.563,35.141-11.656 C336.594,199.469,338.438,210.25,327.344,220.984z"/> <path class="st0" d="M402.75,115.906c0-5.031-5.219-15.094-14.578-17.125C374.656,19.156,296.563,0,256,0 S137.344,19.156,123.813,98.781c-9.375,2.031-14.563,12.094-14.563,17.125c0,5.047,0,33.25,0,33.25h293.5 C402.75,149.156,402.75,120.953,402.75,115.906z"/> <path class="st0" d="M356.719,382.234c0-20.203-6.281-42.297-26.234-42.297H181.5c-19.938,0-26.234,22.094-26.234,42.297 c0,4.797-93.359,28.828-93.359,82.656c0,12.516,30.422,47.109,193.031,47.109h2.109c162.625,0,193.047-34.594,193.047-47.109 C450.094,411.063,356.719,387.031,356.719,382.234z"/> </g> </g>

</svg>
