<!DOCTYPE svg PUBLIC "-//W3C//DTD SVG 1.1//EN" "http://www.w3.org/Graphics/SVG/1.1/DTD/svg11.dtd">
<!-- Uploaded to: SVG Repo, www.svgrepo.com, Transformed by: SVG Repo Mixer Tools -->
<svg height="800px" width="800px" version="1.1" id="_x32_" xmlns="http://www.w3.org/2000/svg" xmlns:xlink="http://www.w3.org/1999/xlink" viewBox="0 0 512 512" xml:space="preserve" fill="#000000">
<g id="SVGRepo_bgCarrier" stroke-width="0"/>
<g id="SVGRepo_tracerCarrier" stroke-linecap="round" stroke-linejoin="round"/>
<g id="SVGRepo_iconCarrier"> <style type="text/css"> .st0{fill:#000000;} </style> <g> <path class="st0" d="M503.462,175.026c-9.17-27.778-27.024-39.163-42.703-33.992c-12.666,4.185-19.858,17.989-17.396,37.745 L383.37,198.58c-11.654-27.844-32.25-50.944-58.14-65.941l21.812-71.596c18.69,1.626,31.462-5.402,35.078-17.272 c4.581-15.034-7.103-31.926-34.563-40.289c-27.46-8.371-46.579-0.866-51.16,14.161c-3.701,12.146,3.394,25.42,20.652,34.522 l-20.682,67.851c-12.632-3.82-26.013-5.924-39.894-5.924c-16.47,0-32.194,3.044-46.833,8.357l-11.274-30.994 c13.419-8.199,18.585-18.988,15.187-28.329c-4.302-11.833-20.507-16.81-43.177-8.55c-22.67,8.244-31.903,22.465-27.591,34.298 c3.473,9.55,14.795,14.49,30.93,11.751l12.071,33.187c-20.129,12.109-36.898,29.15-48.597,49.548L71.2,158.022 c3.1-20.592-3.443-35.022-15.806-39.514c-15.661-5.7-34.492,6.499-45.415,36.506c-10.927,30.001-4.357,51.467,11.311,57.167 c12.642,4.611,27.285-2.679,38.234-21.369l64.362,24.749c-3.122,11.504-4.936,23.554-4.936,36.051 c0,21.152,4.916,41.11,13.448,59.016l-45.956,26.532c-11.008-12.304-23.342-15.527-32.676-10.14 c-11.818,6.827-14.321,24.652-1.671,46.542c12.635,21.89,29.318,28.65,41.14,21.824c9.546-5.514,12.848-18.265,7.17-34.471 l46.284-26.725c19.175,25.449,46.904,44.005,78.99,51.362l-7.767,71.707c-20.357,1.522-32.489,10.192-33.757,21.913 c-1.608,14.862,14.608,28.792,45.836,32.172c31.228,3.388,50.052-6.752,51.66-21.614c1.298-11.99-9.207-23.293-29.676-29.016 l7.771-71.745c33.888-0.806,64.672-13.848,88.23-34.902l53.947,45.616c-10.2,17.831-9.8,32.828-0.739,40.491 c11.478,9.699,32.231,4.036,52.637-20.1c20.406-24.129,22.547-45.542,11.069-55.234c-9.267-7.842-24.602-5.446-40.905,8.394 l-53.28-45.057c14.695-21.89,23.286-48.22,23.286-76.565c0-7.618-0.78-15.041-1.97-22.316l61.572-20.331 c9.747,16.474,23.412,22.875,35.794,18.787C505.062,222.574,512.631,202.796,503.462,175.026z M210.345,319.508 c-11.841-15.638-20.421-37.41-16.004-46.243c4.431,3.447,9.822,7.573,16.004,11.094V319.508z M237.935,336.848 c-0.999,0.03-2.051,0.052-2.887,0.096c-4.006,0.209-8.353-1.738-12.68-4.992v-42.169c3.686,1.193,7.566,2.015,11.64,2.275 c1.19,0.075,2.529,0.158,3.928,0.232V336.848z M201.056,248.822c-9.069-8.752-4.037-29.284-4.037-29.284l42.386,20.368 C239.405,239.906,218.212,265.378,201.056,248.822z M265.526,336.802c-5.305-0.052-10.639-0.089-15.568-0.097v-43.759 c5.23,0.276,10.677,0.537,15.568,0.746V336.802z M293.117,333.587c-3.063,2.134-6.118,3.357-9.009,3.357 c-2.018,0-4.242-0.007-6.558-0.03V294.11c0.91,0.016,1.742,0.03,2.384,0.03c2.477,0,7.494-1.574,13.184-3.805V333.587z M270.76,239.265l44.236-20.368c0,0,5.253,20.533-4.215,29.284C292.878,264.737,270.76,239.265,270.76,239.265z M305.14,320.388 v-35.246c7.305-3.432,13.713-6.954,15.504-8.745C318.966,292.633,312.769,308.824,305.14,320.388z"/> </g> </g>
</svg>